<?xml version="1.0" standalone="no"?>
<!DOCTYPE svg PUBLIC "-//W3C//DTD SVG 20010904//EN"
 "http://www.w3.org/TR/2001/REC-SVG-20010904/DTD/svg10.dtd">
<svg version="1.0" xmlns="http://www.w3.org/2000/svg"
 width="500.000000pt" height="500.000000pt" viewBox="0 0 500.000000 500.000000"
 preserveAspectRatio="xMidYMid meet">
<metadata>
Created by potrace 1.14, written by Peter Selinger 2001-2017
</metadata>
<g transform="translate(0.000000,500.000000) scale(0.100000,-0.100000)"
fill="#000000" stroke="none">
<path d="M1211 4986 c-7 -8 -23 -17 -36 -20 -14 -4 -25 -11 -25 -16 0 -6 -6
-10 -13 -10 -22 0 -84 -68 -107 -117 -12 -26 -36 -85 -52 -132 -17 -48 -36
-98 -44 -112 -7 -15 -11 -29 -8 -31 2 -3 -2 -11 -11 -18 -8 -7 -15 -18 -15
-24 0 -17 -70 -86 -87 -86 -12 0 -13 -7 -8 -27 4 -16 9 -39 11 -52 3 -13 11
-39 19 -58 14 -32 13 -37 -4 -62 -19 -26 -98 -101 -108 -101 -2 0 -11 -7 -20
-15 -12 -13 -13 -21 -4 -43 6 -15 13 -36 15 -47 5 -24 43 -132 80 -228 l26
-69 -52 7 -51 7 31 -38 c18 -21 32 -44 32 -51 0 -7 5 -13 12 -13 6 0 8 -3 5
-6 -3 -4 -1 -16 5 -28 7 -11 13 -23 13 -26 1 -7 35 -121 40 -138 3 -7 5 -13 5
-15 0 -1 16 -49 36 -107 19 -58 38 -116 40 -129 3 -13 9 -32 15 -43 5 -10 8
-18 7 -19 -2 0 -13 -2 -26 -5 -41 -7 -70 -34 -93 -87 -20 -45 -23 -68 -23
-167 0 -127 6 -173 33 -267 6 -23 16 -45 21 -48 6 -4 8 -11 5 -16 -4 -5 -1 -9
5 -9 6 0 8 -4 5 -10 -3 -5 -1 -10 4 -10 6 0 11 -6 11 -13 0 -13 75 -127 90
-137 8 -5 98 -173 100 -188 7 -36 60 -115 78 -118 4 0 14 -4 22 -8 9 -3 30 -5
49 -4 31 3 33 1 52 -57 11 -33 23 -67 26 -75 3 -8 7 -17 8 -20 11 -40 41 -110
47 -110 5 0 8 -9 8 -20 0 -11 4 -20 9 -20 5 0 13 -10 16 -22 8 -25 76 -131 88
-136 4 -2 7 -8 7 -14 0 -5 6 -15 13 -23 6 -7 21 -25 32 -41 48 -67 179 -203
256 -267 42 -35 46 -41 48 -90 2 -28 4 -73 6 -98 l2 -46 -73 3 c-74 3 -194
-26 -194 -47 0 -5 -5 -9 -10 -9 -6 0 -16 -5 -23 -10 -7 -6 -37 -28 -67 -50
-30 -22 -60 -43 -66 -49 -21 -18 -143 -78 -170 -85 -16 -4 -58 -9 -94 -11 -82
-6 -138 -23 -169 -49 -27 -24 -51 -75 -51 -110 0 -23 -19 -35 -70 -42 -8 -1
-31 -5 -50 -8 -19 -4 -48 -9 -65 -12 -16 -3 -37 -7 -45 -9 -8 -2 -30 -7 -49
-10 -19 -3 -42 -10 -52 -16 -11 -5 -19 -7 -19 -3 0 3 -7 1 -15 -6 -8 -7 -15
-9 -15 -5 0 4 -6 2 -13 -4 -8 -6 -17 -8 -20 -4 -4 3 -7 0 -7 -7 0 -7 -3 -11
-6 -7 -11 10 -204 -98 -204 -114 0 -5 -6 -9 -12 -9 -12 0 -137 -124 -163 -161
-33 -46 -95 -146 -95 -154 0 -3 1111 -5 2470 -5 1359 0 2470 2 2470 5 0 5 -34
66 -58 103 -74 115 -217 237 -356 301 -113 52 -347 117 -490 137 -35 4 -33 1
-38 49 -8 67 -44 115 -108 142 -36 16 -52 18 -165 28 -94 7 -173 48 -266 136
-41 38 -92 79 -115 90 -46 22 -132 28 -200 16 l-40 -8 2 38 c1 21 3 66 5 101
1 34 5 62 9 62 24 0 204 179 291 290 112 141 175 255 239 431 l42 116 37 -2
c60 -4 86 23 155 169 35 72 73 141 84 153 27 27 100 146 122 199 16 37 29 90
46 184 7 44 7 188 0 218 -3 12 -8 32 -11 43 -10 49 -64 108 -97 109 -21 0 -21
8 -7 70 6 25 12 56 14 70 2 14 8 45 14 70 35 156 32 459 -6 575 -4 11 -8 23
-9 28 -1 4 -3 9 -4 12 -1 3 -4 10 -5 15 -1 6 -4 12 -5 15 -1 3 -3 8 -4 13 -1
4 -10 24 -19 45 -9 20 -17 41 -18 45 -1 4 -10 19 -20 34 -10 14 -19 31 -19 37
0 6 -4 11 -10 11 -5 0 -10 6 -10 14 0 8 -6 16 -12 19 -9 3 -13 37 -14 123 0
65 -4 138 -8 161 -14 87 -57 187 -106 247 -55 68 -179 163 -305 235 l-89 51
-1102 0 c-933 0 -1103 -2 -1113 -14z"/>
</g>
</svg>
